<?xml version="1.0" encoding="iso-8859-1"?>
<!-- Generator: Adobe Illustrator 19.0.0, SVG Export Plug-In . SVG Version: 6.00 Build 0)  -->
<svg version="1.1" id="Capa_1" xmlns="http://www.w3.org/2000/svg" xmlns:xlink="http://www.w3.org/1999/xlink" x="0px" y="0px"
	 viewBox="0 0 421.141 421.141" style="enable-background:new 0 0 421.141 421.141;" xml:space="preserve">
<g>
	<path style="fill:#FFD7A3;" d="M269.723,237.311c0.005,0.882,0.019,1.813,0.045,2.785
		C269.742,239.124,269.728,238.193,269.723,237.311z"/>
	<path style="fill:#FFD7A3;" d="M270.283,247.984c0.191,1.773,0.448,3.586,0.782,5.399
		C270.731,251.57,270.474,249.757,270.283,247.984z"/>
	<path style="fill:#FFD7A3;" d="M227.725,293.836c-26.247-11.486-52.995-31.33-67.167-48.516c-3.241-2.666-6.294-5.576-9.158-8.694
		c-0.025,4.872-0.305,11.443-1.651,17.909l60.822,54.74L227.725,293.836z"/>
	<path style="fill:#FDC88E;" d="M210.57,263.213c-19.933,0-36.588-6.851-50.013-17.893c14.172,17.186,40.92,37.03,67.167,48.516
		l43.578-39.22c-0.084-0.411-0.162-0.823-0.238-1.234c-0.333-1.812-0.59-3.625-0.782-5.399c-0.3-2.777-0.448-5.458-0.514-7.887
		c-0.027-0.972-0.04-1.904-0.045-2.785c-0.001-0.228-0.001-0.443-0.001-0.664C254.996,252.668,235.305,263.213,210.57,263.213z"/>
	<path style="fill:#FFE1B2;" d="M160.557,245.32c13.425,11.042,30.08,17.893,50.013,17.893c24.735,0,44.426-10.545,59.152-26.566
		c9.263-10.077,16.562-22.32,21.911-35.477c13.002,7.588,24.132-19.707,24.132-31.727c0-8.512-4.772-13.578-12.448-13.747
		l-0.622,8.111l-13.161,7.281c0,0-3.839-44.755-6.58-52.643c-48.256,0-96.511,0-144.767,0c-2.742,7.887-6.58,52.643-6.58,52.643
		l-13.161-7.281l-0.621-8.095c-7.748-0.418-12.63,4.734-12.63,13.73c0,12.582,11.173,41.899,23.791,30.424
		c5.389,13.642,12.854,26.354,22.413,36.759C154.263,239.744,157.316,242.654,160.557,245.32z"/>
	<path style="fill:#7E5449;" d="M131.606,171.088c0,0,3.839-44.755,6.58-52.643c-7.741,0-15.481,0-23.222,0l2.86,37.267l0.621,8.095
		L131.606,171.088z"/>
	<path style="fill:#7E5449;" d="M282.954,118.446c2.742,7.887,6.58,52.643,6.58,52.643l13.161-7.281l0.622-8.111l2.859-37.251
		C298.435,118.446,290.695,118.446,282.954,118.446z"/>
	<path style="fill:#527992;" d="M40.684,408.128c-0.136-0.372-0.269-0.745-0.383-1.127
		C40.414,407.384,40.548,407.756,40.684,408.128z"/>
	<path style="fill:#527992;" d="M40.087,406.17c-0.079-0.317-0.165-0.632-0.229-0.955C39.922,405.538,40.008,405.852,40.087,406.17z
		"/>
	<path style="fill:#527992;" d="M380.84,407.001c-0.114,0.382-0.247,0.755-0.383,1.127
		C380.592,407.756,380.727,407.384,380.84,407.001z"/>
	<path style="fill:#527992;" d="M380.253,408.685c-0.177,0.441-0.372,0.874-0.579,1.298
		C379.88,409.557,380.077,409.127,380.253,408.685z"/>
	<path style="fill:#527992;" d="M381.561,403.343c-0.024,0.248-0.071,0.488-0.104,0.733
		C381.49,403.831,381.536,403.591,381.561,403.343z"/>
	<path style="fill:#527992;" d="M41.467,409.983c-0.208-0.425-0.402-0.857-0.579-1.298C41.063,409.127,41.26,409.557,41.467,409.983
		z"/>
	<path style="fill:#527992;" d="M295.641,270.929L295.641,270.929l0.07,0.022l0,0l-0.356-0.114l-47.354,65.111
		c-2.378,3.27-7.116,3.642-9.975,0.783l-14.296-14.296v6.58c0,2.694-1.642,5.022-3.974,6.037l3.974,86.088h59.223l-39.482-0.234
		L295.641,270.929z"/>
	<path style="fill:#527992;" d="M364.235,420.907h-81.148l-0.134,0.234h78.964c7.715,0,14.378-4.436,17.626-10.887
		C376.62,416.005,370.937,420.113,364.235,420.907z"/>
	<path style="fill:#527992;" d="M331.521,282.41l-33.958-10.867v0L331.521,282.41c27.576,8.823,50.138,39.732,50.138,68.687l0,0
		C381.659,322.143,359.097,291.233,331.521,282.41z"/>
	<path style="fill:#527992;" d="M89.62,282.41l33.958-10.866v0L89.62,282.41c-27.576,8.823-50.138,39.732-50.138,68.687l0,0
		C39.482,322.143,62.044,291.233,89.62,282.41z"/>
	<path style="fill:#527992;" d="M39.684,404.076c-0.033-0.245-0.08-0.485-0.104-0.733C39.604,403.591,39.651,403.831,39.684,404.076
		z"/>
	<path style="fill:#527992;" d="M56.905,420.907c-6.702-0.793-12.384-4.902-15.308-10.653c3.247,6.451,9.911,10.887,17.626,10.887
		h78.964l-0.134-0.234H56.905z"/>
	<path style="fill:#527992;" d="M381.282,405.215c-0.064,0.323-0.149,0.638-0.229,0.955
		C381.133,405.852,381.219,405.538,381.282,405.215z"/>
	<path style="fill:#527992;" d="M201.384,335.053c-2.332-1.015-3.975-3.342-3.975-6.037v-6.58l-14.296,14.296
		c-2.859,2.859-7.596,2.488-9.975-0.783l-47.354-65.111l-0.356,0.114l0,0l0.069-0.022h0l52.169,149.978l-39.482,0.234h59.223
		L201.384,335.053z"/>
	<path style="fill:#475F7F;" d="M173.139,335.949c2.378,3.27,7.116,3.642,9.975,0.783l14.296-14.296l13.161-13.161l-60.822-54.74
		l-0.341-0.306c-2.601-2.341-6.58-2.237-9.055,0.238l-15.326,15.326l0.759,1.044L173.139,335.949z"/>
	<path style="fill:#475F7F;" d="M227.725,293.836l-17.154,15.439l13.161,13.161l14.296,14.296c2.859,2.859,7.596,2.488,9.975-0.783
		l47.354-65.111l0.759-1.044l-15.326-15.326c-2.475-2.475-6.454-2.579-9.055-0.238l-0.431,0.388L227.725,293.836z"/>
	<path style="fill:#545465;" d="M219.756,335.053c2.332-1.015,3.974-3.342,3.974-6.037v-6.58l-13.161-13.161l-13.161,13.161v6.58
		c0,2.694,1.642,5.022,3.975,6.037l-3.975,86.088h13.161h13.161L219.756,335.053z"/>
	<path style="fill:#E4EBF0;" d="M331.521,282.41l-33.958-10.866l26.541,32.087c2.605,2.993,1.988,7.594-1.314,9.795l-13.515,9.01
		l15.633,15.634c2.347,2.346,2.579,6.073,0.541,8.693l-42.362,74.145h81.148c6.702-0.793,12.384-4.902,15.308-10.653
		c0.045-0.089,0.086-0.181,0.13-0.271c0.208-0.425,0.402-0.857,0.579-1.298c0.073-0.183,0.136-0.371,0.204-0.557
		c0.136-0.372,0.269-0.745,0.383-1.127c0.081-0.273,0.144-0.553,0.214-0.831c0.079-0.317,0.165-0.632,0.229-0.955
		c0.074-0.374,0.122-0.757,0.174-1.139c0.033-0.245,0.08-0.485,0.104-0.733c0.063-0.639,0.098-1.287,0.098-1.944v-50.303
		C381.659,322.143,359.097,291.233,331.521,282.41z"/>
	<polygon style="fill:#E4EBF0;" points="295.641,270.929 243.472,420.907 295.711,270.951 295.642,270.929 	"/>
	<path style="fill:#E4EBF0;" d="M56.905,420.907h81.148l-42.362-74.145c-2.037-2.62-1.805-6.346,0.541-8.693l15.633-15.634
		l-13.515-9.01c-3.302-2.201-3.919-6.802-1.314-9.795l26.541-32.087L89.62,282.41c-27.576,8.823-50.138,39.732-50.138,68.687V401.4
		c0,0.656,0.035,1.304,0.098,1.944c0.024,0.248,0.071,0.488,0.104,0.733c0.052,0.382,0.1,0.764,0.174,1.139
		c0.064,0.323,0.149,0.638,0.229,0.955c0.07,0.278,0.132,0.558,0.214,0.831c0.114,0.382,0.247,0.755,0.383,1.127
		c0.068,0.186,0.13,0.374,0.204,0.557c0.177,0.441,0.372,0.874,0.579,1.298c0.044,0.09,0.085,0.181,0.13,0.271
		C44.521,416.005,50.204,420.113,56.905,420.907z"/>
	<polygon style="fill:#E4EBF0;" points="125.499,270.929 125.499,270.929 125.43,270.951 177.669,420.907 	"/>
	<path style="fill:#D0D7DC;" d="M125.43,270.951L125.43,270.951l-0.403-1.158l-1.448,1.75v0l-26.541,32.087
		c-2.605,2.993-1.988,7.594,1.314,9.795l13.515,9.01l-15.633,15.634c-2.347,2.346-2.579,6.073-0.541,8.693l42.362,74.145
		l0.134,0.234l39.482-0.234L125.43,270.951z"/>
	<path style="fill:#D0D7DC;" d="M325.45,346.762c2.037-2.62,1.805-6.346-0.541-8.693l-15.633-15.634l13.515-9.01
		c3.302-2.201,3.919-6.802,1.314-9.795l-26.541-32.087v0l-1.448-1.75l-0.403,1.158l0,0l-52.239,149.956l39.482,0.234l0.134-0.234
		L325.45,346.762z"/>
	<path style="fill:#E4EBF0;" d="M138.187,118.446c48.256,0,96.511,0,144.767,0c7.741,0,15.481,0,23.222,0c1.033,0,2.066,0,3.099,0
		c0-35.095,0-59.654,0-94.749c-62.01-31.596-135.399-31.596-197.41,0c0,35.095,0,59.654,0,94.749c1.033,0,2.066,0,3.099,0
		C122.705,118.446,130.446,118.446,138.187,118.446z"/>
</g>
<g>
</g>
<g>
</g>
<g>
</g>
<g>
</g>
<g>
</g>
<g>
</g>
<g>
</g>
<g>
</g>
<g>
</g>
<g>
</g>
<g>
</g>
<g>
</g>
<g>
</g>
<g>
</g>
<g>
</g>
</svg>
