<?xml version="1.0" encoding="iso-8859-1"?>
<!-- Generator: Adobe Illustrator 19.0.0, SVG Export Plug-In . SVG Version: 6.00 Build 0)  -->
<svg version="1.1" id="Capa_1" xmlns="http://www.w3.org/2000/svg" xmlns:xlink="http://www.w3.org/1999/xlink" x="0px" y="0px"
	 viewBox="0 0 421.141 421.141" style="enable-background:new 0 0 421.141 421.141;" xml:space="preserve">
<g>
	<path style="fill:#7C828D;" d="M290.01,74.122c0.035-1.415-0.117-2.963-0.476-4.656c-7.677-36.192-29.611-60.868-39.482-65.803
		c-22.208-11.104-29.611,6.58-39.482,6.58c-9.87,0-17.273-17.685-39.482-6.58c-9.87,4.935-31.805,29.611-39.482,65.803
		c-0.359,1.693-0.511,3.241-0.476,4.656c23.092-5.273,50.302-8.319,79.44-8.319C239.709,65.803,266.919,68.849,290.01,74.122z"/>
	<path style="fill:#6E6E79;" d="M118.883,163.138c-0.288-3.728-0.438-7.42-0.438-11.049c0-13.302,0.086-24.494,1.668-33.803
		c1.244-0.408,2.512-0.803,3.792-1.192c0.643-0.197,1.29-0.391,1.94-0.584c0.123-0.036,0.248-0.071,0.372-0.107
		c23.755-6.986,52.863-11.116,84.353-11.116c31.49,0,60.597,4.131,84.352,11.116c0.124,0.036,0.249,0.072,0.373,0.108
		c0.651,0.193,1.297,0.387,1.94,0.584c1.28,0.389,2.548,0.784,3.792,1.192c1.582,9.31,1.668,20.502,1.668,33.803
		c0,3.595-0.146,7.251-0.429,10.942c2.532-0.088,4.77,0.334,6.666,1.212c32.429-10.259,52.986-25.495,52.986-42.507
		c0-20.122-28.758-37.76-71.907-47.614c-23.092-5.273-50.302-8.319-79.44-8.319c-29.138,0-56.348,3.046-79.44,8.319
		c-43.15,9.854-71.907,27.491-71.907,47.614c0,16.931,20.357,32.104,52.518,42.361C113.744,163.161,116.152,162.824,118.883,163.138
		z"/>
	<path style="fill:#FFD7A3;" d="M269.738,245.998L269.738,245.998c-0.007-0.467-0.012-0.923-0.015-1.365
		C269.726,245.075,269.731,245.531,269.738,245.998z"/>
	<path style="fill:#FFD7A3;" d="M160.558,252.642c-3.241-2.666-6.294-5.576-9.159-8.694c-0.002,0.418-0.007,0.847-0.013,1.289
		c0.196,12.461,2.446,24.809,6.708,36.529l5.961,18.103c5.507,3.344,11.128,6.422,16.742,9.003c0.174,0.08,0.348,0.159,0.521,0.238
		c0.529,0.24,1.058,0.478,1.586,0.709c0.132,0.058,0.265,0.113,0.397,0.17c0.901,0.39,1.801,0.764,2.7,1.125
		c0.345,0.138,0.69,0.277,1.034,0.411c0.394,0.154,0.788,0.304,1.182,0.451c0.423,0.158,0.845,0.312,1.267,0.463
		c0.327,0.117,0.654,0.238,0.98,0.351c0.699,0.242,1.397,0.472,2.093,0.694c0.292,0.093,0.584,0.181,0.876,0.27
		c0.5,0.153,1,0.301,1.499,0.443c0.278,0.079,0.555,0.159,0.833,0.234c0.734,0.2,1.466,0.391,2.195,0.565
		c0.13,0.031,0.26,0.057,0.39,0.088c0.636,0.148,1.271,0.285,1.903,0.413c0.239,0.048,0.478,0.094,0.717,0.139
		c0.59,0.112,1.179,0.214,1.765,0.307c0.173,0.027,0.347,0.059,0.521,0.084c0.742,0.11,1.48,0.205,2.215,0.284
		c0.178,0.019,0.355,0.033,0.532,0.05c0.584,0.057,1.166,0.103,1.746,0.138c0.209,0.013,0.417,0.026,0.625,0.036
		c0.735,0.036,1.468,0.06,2.195,0.06c0.727,0,1.459-0.024,2.195-0.06c0.208-0.01,0.417-0.023,0.625-0.036
		c0.58-0.036,1.161-0.082,1.746-0.138c0.177-0.017,0.354-0.031,0.532-0.05c0.735-0.079,1.473-0.173,2.215-0.284
		c0.173-0.026,0.347-0.057,0.521-0.084c0.586-0.093,1.175-0.195,1.765-0.307c0.239-0.045,0.478-0.091,0.717-0.139
		c0.632-0.127,1.266-0.265,1.901-0.413c0.131-0.031,0.261-0.057,0.392-0.088c0.729-0.174,1.461-0.365,2.195-0.565
		c0.277-0.075,0.555-0.155,0.832-0.234c0.499-0.142,0.999-0.29,1.499-0.443c0.292-0.089,0.583-0.177,0.876-0.27
		c0.697-0.222,1.394-0.452,2.094-0.694c0.326-0.113,0.654-0.234,0.98-0.351c0.422-0.151,0.844-0.305,1.268-0.463
		c0.394-0.148,0.788-0.298,1.182-0.451c0.344-0.134,0.688-0.272,1.032-0.41c0.905-0.364,1.811-0.74,2.718-1.133
		c0.127-0.055,0.253-0.107,0.38-0.163c0.53-0.231,1.06-0.47,1.59-0.711c0.172-0.078,0.344-0.156,0.516-0.236
		c1.203-0.553,2.407-1.128,3.61-1.724C213.174,298.059,177.684,273.41,160.558,252.642z"/>
	<path style="fill:#FDC88E;" d="M269.723,243.968c-14.727,16.021-34.417,26.566-59.152,26.566c-19.933,0-36.588-6.851-50.013-17.893
		c17.126,20.769,52.616,45.418,83.394,54.507c4.409-2.187,8.807-4.652,13.134-7.28l5.961-18.103
		c4.175-11.482,6.416-23.565,6.691-35.768c-0.007-0.467-0.012-0.923-0.015-1.365C269.722,244.404,269.723,244.189,269.723,243.968z"
		/>
	<path style="fill:#7C828D;" d="M115.29,337.611l16.317-21.756l-33.95-11.317c-3.25-1.083-5.137-4.443-4.326-7.771
		c0.605-2.482,1.483-5.61,2.701-9.088l-6.412,2.052c-27.576,8.823-50.138,39.733-50.138,68.687V401.4
		c0,10.903,8.838,19.741,19.741,19.741h118.446l-61.768-74.928C113.585,343.897,113.325,340.231,115.29,337.611z"/>
	<path style="fill:#7C828D;" d="M331.521,289.731l-6.412-2.052c1.217,3.478,2.095,6.606,2.7,9.088
		c0.811,3.328-1.076,6.688-4.325,7.771l-33.95,11.317l16.317,21.756c1.965,2.62,1.704,6.286-0.611,8.601l-61.768,74.928h118.446
		c10.903,0,19.741-8.838,19.741-19.741v-42.981C381.659,329.464,359.097,298.554,331.521,289.731z"/>
	<path style="fill:#7C828D;" d="M227.706,313.755c-0.5,0.153-1,0.301-1.499,0.443C226.705,314.056,227.205,313.908,227.706,313.755z
		"/>
	<path style="fill:#7C828D;" d="M232.923,311.976c-0.423,0.158-0.845,0.312-1.268,0.463
		C232.077,312.288,232.5,312.135,232.923,311.976z"/>
	<path style="fill:#7C828D;" d="M215.136,316.362c-0.584,0.057-1.166,0.103-1.746,0.138
		C213.97,316.465,214.551,316.419,215.136,316.362z"/>
	<path style="fill:#7C828D;" d="M238.235,309.819c-0.127,0.055-0.253,0.108-0.38,0.163
		C237.982,309.927,238.108,309.874,238.235,309.819z"/>
	<path style="fill:#7C828D;" d="M205.473,316.312c-0.735-0.079-1.473-0.173-2.215-0.284
		C203.999,316.139,204.738,316.233,205.473,316.312z"/>
	<path style="fill:#7C828D;" d="M217.883,316.028c-0.742,0.11-1.48,0.205-2.215,0.284
		C216.403,316.233,217.141,316.139,217.883,316.028z"/>
	<path style="fill:#7C828D;" d="M197.962,314.997c-0.729-0.174-1.462-0.365-2.195-0.565
		C196.5,314.632,197.232,314.823,197.962,314.997z"/>
	<path style="fill:#7C828D;" d="M235.137,311.114c-0.344,0.138-0.688,0.276-1.032,0.41
		C234.449,311.391,234.793,311.253,235.137,311.114z"/>
	<path style="fill:#7C828D;" d="M202.737,315.944c-0.586-0.093-1.175-0.195-1.765-0.307
		C201.562,315.749,202.151,315.851,202.737,315.944z"/>
	<path style="fill:#7C828D;" d="M181.318,309.109c-0.174-0.079-0.348-0.158-0.521-0.238
		C180.971,308.951,181.144,309.03,181.318,309.109z"/>
	<path style="fill:#7C828D;" d="M183.301,309.988c-0.133-0.057-0.265-0.112-0.397-0.17
		C183.037,309.876,183.169,309.931,183.301,309.988z"/>
	<path style="fill:#7C828D;" d="M200.255,315.498c-0.633-0.127-1.267-0.265-1.903-0.413
		C198.988,315.233,199.623,315.37,200.255,315.498z"/>
	<path style="fill:#7C828D;" d="M220.169,315.637c-0.59,0.112-1.179,0.214-1.765,0.307
		C218.99,315.851,219.578,315.749,220.169,315.637z"/>
	<path style="fill:#7C828D;" d="M208.376,316.537c0.735,0.036,1.468,0.06,2.195,0.06c0.727,0,1.459-0.024,2.195-0.06
		c-0.735,0.036-1.468,0.06-2.195,0.06C209.844,316.596,209.111,316.572,208.376,316.537z"/>
	<path style="fill:#7C828D;" d="M225.374,314.432c-0.734,0.2-1.466,0.391-2.195,0.565
		C223.908,314.823,224.641,314.632,225.374,314.432z"/>
	<path style="fill:#7C828D;" d="M189.485,312.439c-0.422-0.151-0.844-0.305-1.267-0.463
		C188.641,312.135,189.063,312.288,189.485,312.439z"/>
	<path style="fill:#7C828D;" d="M192.559,313.485c-0.696-0.222-1.394-0.452-2.093-0.694
		C191.165,313.033,191.863,313.263,192.559,313.485z"/>
	<path style="fill:#7C828D;" d="M230.675,312.791c-0.699,0.242-1.397,0.472-2.094,0.694
		C229.278,313.263,229.976,313.033,230.675,312.791z"/>
	<path style="fill:#7C828D;" d="M240.341,308.872c-0.172,0.079-0.344,0.157-0.516,0.236
		C239.997,309.03,240.169,308.952,240.341,308.872z"/>
	<path style="fill:#7C828D;" d="M194.934,314.198c-0.499-0.142-0.999-0.29-1.499-0.443
		C193.936,313.908,194.435,314.056,194.934,314.198z"/>
	<path style="fill:#7C828D;" d="M207.75,316.5c-0.579-0.036-1.161-0.082-1.746-0.138C206.589,316.419,207.171,316.465,207.75,316.5z
		"/>
	<path style="fill:#7C828D;" d="M187.036,311.525c-0.344-0.134-0.689-0.273-1.034-0.411
		C186.347,311.252,186.692,311.391,187.036,311.525z"/>
	<path style="fill:#7C828D;" d="M222.787,315.085c-0.636,0.148-1.27,0.285-1.901,0.413
		C221.518,315.37,222.151,315.233,222.787,315.085z"/>
	<path style="fill:#29394A;" d="M257.085,299.869c-4.327,2.628-8.725,5.092-13.134,7.28c-1.203,0.597-2.407,1.171-3.61,1.724
		c-0.172,0.079-0.344,0.157-0.516,0.236c-0.53,0.241-1.06,0.479-1.59,0.711c-0.127,0.055-0.253,0.108-0.38,0.163
		c-0.907,0.393-1.813,0.769-2.718,1.133c-0.344,0.138-0.688,0.276-1.032,0.41c-0.394,0.154-0.788,0.304-1.182,0.451
		c-0.423,0.159-0.845,0.312-1.268,0.463c-0.327,0.117-0.654,0.238-0.98,0.351c-0.699,0.242-1.397,0.472-2.094,0.694
		c-0.292,0.093-0.584,0.181-0.876,0.27c-0.5,0.153-1,0.301-1.499,0.443c-0.278,0.079-0.555,0.159-0.832,0.234
		c-0.734,0.2-1.466,0.391-2.195,0.565c-0.131,0.031-0.261,0.058-0.392,0.088c-0.636,0.148-1.27,0.285-1.901,0.413
		c-0.24,0.048-0.478,0.094-0.717,0.139c-0.59,0.112-1.179,0.214-1.765,0.307c-0.173,0.027-0.348,0.059-0.521,0.084
		c-0.742,0.111-1.48,0.205-2.215,0.284c-0.178,0.019-0.355,0.033-0.532,0.05c-0.584,0.057-1.166,0.103-1.746,0.138
		c-0.208,0.013-0.417,0.026-0.625,0.036c-0.735,0.036-1.468,0.06-2.195,0.06c-0.727,0-1.459-0.024-2.195-0.06
		c-0.208-0.01-0.417-0.023-0.625-0.036c-0.579-0.036-1.161-0.082-1.746-0.138c-0.177-0.017-0.354-0.031-0.532-0.05
		c-0.735-0.079-1.473-0.173-2.215-0.284c-0.173-0.026-0.347-0.057-0.521-0.084c-0.587-0.093-1.175-0.195-1.765-0.307
		c-0.239-0.045-0.478-0.091-0.717-0.139c-0.633-0.128-1.267-0.265-1.903-0.413c-0.13-0.03-0.26-0.057-0.39-0.088
		c-0.729-0.174-1.462-0.365-2.195-0.565c-0.277-0.075-0.555-0.155-0.833-0.234c-0.499-0.142-0.998-0.29-1.499-0.443
		c-0.292-0.089-0.583-0.177-0.876-0.27c-0.697-0.222-1.394-0.452-2.093-0.694c-0.326-0.113-0.654-0.234-0.98-0.351
		c-0.422-0.152-0.844-0.305-1.267-0.463c-0.394-0.147-0.788-0.298-1.182-0.451c-0.344-0.134-0.689-0.273-1.034-0.411
		c-0.899-0.361-1.799-0.735-2.7-1.125c-0.133-0.057-0.265-0.112-0.397-0.17c-0.528-0.231-1.057-0.469-1.586-0.709
		c-0.174-0.079-0.348-0.158-0.521-0.238c-5.614-2.581-11.235-5.658-16.742-9.003l39.935,121.272h13.161L257.085,299.869z"/>
	<path style="fill:#6E6E79;" d="M164.055,299.869l-5.961-18.103c-4.262-11.72-6.511-24.068-6.708-36.529
		c-0.007-0.445-0.027-0.889-0.029-1.334c-0.129-0.14-0.26-0.278-0.388-0.419c-33.95,0.2-48.821,26.718-54.938,44.197
		c-1.217,3.478-2.095,6.606-2.701,9.088c-0.811,3.328,1.076,6.688,4.326,7.771l33.95,11.317l-16.317,21.756
		c-1.965,2.62-1.704,6.286,0.611,8.601l61.768,74.928h19.738h6.583L164.055,299.869z"/>
	<path style="fill:#6E6E79;" d="M305.851,337.611l-16.317-21.756l33.95-11.317c3.25-1.083,5.137-4.443,4.325-7.771
		c-0.605-2.482-1.483-5.61-2.7-9.088c-6.116-17.479-20.988-43.997-54.938-44.197c-0.128,0.141-0.259,0.279-0.388,0.419
		c-0.003,0.699-0.03,1.397-0.046,2.096l0,0c-0.275,12.203-2.516,24.286-6.691,35.768l-5.961,18.103l-39.935,121.272h6.581h19.74
		l61.768-74.928C307.555,343.897,307.816,340.231,305.851,337.611z"/>
	<path style="fill:#FFE1B2;" d="M151.399,243.947c2.865,3.118,5.917,6.028,9.159,8.694c13.425,11.042,30.08,17.893,50.013,17.893
		c24.735,0,44.426-10.545,59.152-26.566c0.02-0.022,0.041-0.044,0.061-0.066c0.129-0.14,0.26-0.278,0.388-0.419
		c9.052-9.983,16.199-22.047,21.461-34.992c13.002,7.588,24.132-19.708,24.132-31.727c0-6.176-2.524-10.525-6.834-12.521
		c-1.896-0.878-4.134-1.3-6.666-1.212c0.283-3.691,0.429-7.348,0.429-10.942c0,6.44-0.46,13.076-1.369,19.761l-11.792,6.56
		c0,0-0.457-3.244-1.238-8.35l-10.25,3.147v11.042c0,10.903-8.838,19.741-19.741,19.741h-6.58
		c-17.054,0-31.076-12.975-32.736-29.592c-0.672-2.485-4.271-4.518-8.328-4.518c-4.058,0-7.656,2.033-8.328,4.518
		c-1.66,16.616-15.682,29.591-32.736,29.591h-6.58c-10.903,0-19.741-8.838-19.741-19.741v-11.028l-10.428-3.178
		c-0.783,5.115-1.241,8.367-1.241,8.367l-11.792-6.56c-0.908-6.686-1.369-13.322-1.369-19.761c0,3.629,0.149,7.322,0.438,11.049
		c-2.731-0.314-5.14,0.023-7.143,0.959c-4.125,1.927-6.546,6.342-6.546,12.668c0,12.582,11.173,41.899,23.791,30.424
		c5.308,13.438,12.629,25.977,21.984,36.294c0.128,0.141,0.259,0.279,0.388,0.419C151.371,243.917,151.385,243.932,151.399,243.947z
		"/>
	<path style="fill:#FFE1B2;" d="M144.767,111.865c-3.681,10.061-7.654,31.803-10.26,47.707h15.349h46.062
		c3.311,0,6.043,2.448,6.504,5.632c2.353-1.204,5.172-1.904,8.239-1.904s5.885,0.7,8.238,1.904c0.461-3.183,3.193-5.632,6.504-5.632
		h46.062c0,0,0,0,0,0l0,0h15.168c-2.607-15.904-6.58-37.646-10.26-47.707c0.01-0.016,0.017-0.031,0.028-0.048
		c6.452,1.353,12.656,2.877,18.521,4.583c-23.755-6.986-52.862-11.116-84.352-11.116c-31.49,0-60.598,4.131-84.353,11.116
		c5.865-1.707,12.069-3.23,18.522-4.584C144.75,111.834,144.757,111.849,144.767,111.865z"/>
	<path style="fill:#FFE1B2;" d="M123.906,117.093c0.644-0.196,1.287-0.393,1.94-0.584
		C125.195,116.702,124.548,116.896,123.906,117.093z"/>
	<path style="fill:#FFE1B2;" d="M271.465,166.153h-46.062v4.935c0,0.798,0.042,1.587,0.112,2.367c0.075,0.416,0.124,0.84,0.145,1.27
		c1.777,12.798,12.785,22.684,26.064,22.684h6.58c7.257,0,13.161-5.904,13.161-13.161V166.153z"/>
	<path style="fill:#FFE1B2;" d="M295.295,116.509c0.653,0.191,1.296,0.388,1.94,0.584
		C296.592,116.896,295.946,116.702,295.295,116.509z"/>
	<path style="fill:#FFE1B2;" d="M195.806,173.456c0.07-0.781,0.112-1.569,0.112-2.367v-4.935h-46.062v9.073v9.022
		c0,7.257,5.904,13.161,13.161,13.161h6.58c13.28,0,24.287-9.887,26.064-22.685C195.683,174.294,195.731,173.872,195.806,173.456z"
		/>
	<path style="fill:#29394A;" d="M297.235,117.093c-0.644-0.196-1.287-0.393-1.94-0.584c-0.124-0.036-0.249-0.072-0.373-0.108
		c-5.865-1.707-12.069-3.23-18.521-4.583c-0.01,0.016-0.017,0.031-0.028,0.048c3.681,10.061,7.654,31.803,10.26,47.707h-15.168l0,0
		c0,0,0,0,0,0h-46.062c-3.311,0-6.043,2.448-6.504,5.632c-2.353-1.204-5.172-1.904-8.238-1.904s-5.885,0.7-8.239,1.904
		c-0.461-3.183-3.193-5.632-6.504-5.632h-46.062h-15.349c2.606-15.904,6.58-37.646,10.26-47.707
		c-0.01-0.016-0.017-0.031-0.028-0.048c-6.452,1.354-12.657,2.877-18.522,4.584c-0.124,0.036-0.249,0.071-0.372,0.107
		c-0.653,0.191-1.296,0.388-1.94,0.584c-1.28,0.389-2.548,0.784-3.792,1.192c-1.582,9.31-1.668,20.502-1.668,33.803
		c0,6.44,0.46,13.076,1.369,19.761l11.792,6.56c0,0,0.458-3.251,1.241-8.367l10.428,3.178v11.028
		c0,10.903,8.838,19.741,19.741,19.741h6.58c17.054,0,31.076-12.975,32.736-29.591c0.672-2.486,4.27-4.518,8.328-4.518
		c4.057,0,7.656,2.032,8.328,4.518c1.66,16.617,15.682,29.592,32.736,29.592h6.58c10.903,0,19.741-8.838,19.741-19.741v-11.042
		l10.25-3.147c0.782,5.106,1.238,8.35,1.238,8.35l11.792-6.56c0.908-6.686,1.369-13.322,1.369-19.761
		c0-13.302-0.086-24.494-1.668-33.803C299.783,117.877,298.515,117.482,297.235,117.093z M169.597,197.41h-6.58
		c-7.257,0-13.161-5.904-13.161-13.161v-9.022v-9.073h46.062v4.935c0,0.798-0.042,1.587-0.112,2.367
		c-0.075,0.416-0.124,0.839-0.145,1.269C193.884,187.523,182.876,197.41,169.597,197.41z M258.305,197.41h-6.58
		c-13.279,0-24.287-9.886-26.064-22.684c-0.022-0.431-0.07-0.854-0.145-1.27c-0.07-0.78-0.112-1.569-0.112-2.367v-4.935h46.062
		v18.096C271.465,191.506,265.561,197.41,258.305,197.41z"/>
</g>
<g>
</g>
<g>
</g>
<g>
</g>
<g>
</g>
<g>
</g>
<g>
</g>
<g>
</g>
<g>
</g>
<g>
</g>
<g>
</g>
<g>
</g>
<g>
</g>
<g>
</g>
<g>
</g>
<g>
</g>
</svg>
