<?xml version="1.0" encoding="iso-8859-1"?>
<!-- Generator: Adobe Illustrator 19.0.0, SVG Export Plug-In . SVG Version: 6.00 Build 0)  -->
<svg version="1.1" id="Layer_1" xmlns="http://www.w3.org/2000/svg" xmlns:xlink="http://www.w3.org/1999/xlink" x="0px" y="0px"
	 viewBox="0 0 512 512" style="enable-background:new 0 0 512 512;" xml:space="preserve">
<circle style="fill:#7A7A7C;" cx="380.427" cy="109.657" r="109.657"/>
<path style="fill:#6A6A6B;" d="M457.97,187.199c-42.824,42.824-112.257,42.824-155.081,0
	c37.553-37.553,136.37-136.37,155.081-155.081C500.795,74.942,500.795,144.375,457.97,187.199z"/>
<path style="fill:#7A7A7C;" d="M33.845,512l-11.934-11.933c27.03-27.03,29.989-40.095,33.12-53.927
	c3.31-14.626,6.735-29.751,33.595-56.611l11.934,11.933c-23.412,23.411-26.033,34.993-29.069,48.404
	C68.131,464.703,64.324,481.522,33.845,512z"/>
<path style="fill:#4D4D4D;" d="M102.272,419.88l-32.063-32.063c-13.688-13.688-14.086-35.757-0.899-49.929l201.669-216.744
	l97.967,97.967L152.201,420.779C138.028,433.966,115.961,433.568,102.272,419.88z"/>
<path style="fill:#282828;" d="M102.272,419.88l-16.031-16.032l233.721-233.721l48.983,48.983l-216.744,201.67
	C138.028,433.966,115.961,433.568,102.272,419.88z"/>
<polygon style="fill:#95E9D2;" points="248.93,144.84 345.248,241.159 368.945,219.11 270.979,121.144 "/>
<polygon style="fill:#8CD9C3;" points="297.089,192.999 345.248,241.159 368.945,219.11 319.962,170.126 "/>
<rect x="189.615" y="245.905" transform="matrix(-0.7071 -0.7071 0.7071 -0.7071 160.6718 626.5359)" style="fill:#7A7A7C;" width="40.961" height="68.173"/>
<rect x="207.093" y="253.141" transform="matrix(-0.7071 -0.7071 0.7071 -0.7071 167.9106 644.0062)" style="fill:#6A6A6B;" width="20.48" height="68.173"/>
<path style="fill:#C3C3C9;" d="M446.031,197.178l-153.12-153.12c-3.907-3.907-3.907-10.24,0-14.147l7.77-7.77
	c3.907-3.907,10.24-3.907,14.147,0L467.949,175.26c3.907,3.907,3.907,10.24,0,14.147l-7.77,7.77
	C456.272,201.085,449.938,201.085,446.031,197.178z"/>
<path style="fill:#B8B9BD;" d="M445.954,197.101l-76.484-76.484c7.241-7.241,15.013-15.013,21.917-21.917l76.484,76.484
	c3.949,3.949,3.949,10.351,0,14.3l-7.617,7.617C456.305,201.05,449.903,201.05,445.954,197.101z"/>
<g>
</g>
<g>
</g>
<g>
</g>
<g>
</g>
<g>
</g>
<g>
</g>
<g>
</g>
<g>
</g>
<g>
</g>
<g>
</g>
<g>
</g>
<g>
</g>
<g>
</g>
<g>
</g>
<g>
</g>
</svg>
