<?xml version="1.0" encoding="iso-8859-1"?>
<!-- Generator: Adobe Illustrator 19.0.0, SVG Export Plug-In . SVG Version: 6.00 Build 0)  -->
<svg version="1.1" id="Capa_1" xmlns="http://www.w3.org/2000/svg" xmlns:xlink="http://www.w3.org/1999/xlink" x="0px" y="0px"
	 viewBox="0 0 421.14 421.14" style="enable-background:new 0 0 421.14 421.14;" xml:space="preserve">
<g>
	<path style="fill:#FFD7A3;" d="M227.725,301.158c-26.248-11.486-52.995-31.33-67.167-48.516c-3.241-2.666-6.294-5.576-9.158-8.694
		c-0.025,4.871-0.304,11.443-1.651,17.909l60.822,54.74L227.725,301.158z"/>
	<path style="fill:#FDC88E;" d="M210.57,270.534c-19.933,0-36.588-6.851-50.013-17.893c14.172,17.186,40.92,37.03,67.167,48.516
		l43.577-39.22c-0.106-0.52-0.208-1.041-0.301-1.562c-1.066-5.97-1.274-11.91-1.279-16.408
		C254.996,259.989,235.305,270.534,210.57,270.534z"/>
	<path style="fill:#FFE1B2;" d="M160.557,252.641c13.425,11.042,30.08,17.893,50.013,17.893c24.735,0,44.426-10.545,59.152-26.566
		c9.263-10.077,16.562-22.32,21.911-35.477c13.002,7.588,24.132-19.707,24.132-31.727c0-8.737-5.034-13.835-13.071-13.739v7.917
		l-13.161,7.467c0,0-7.868-49.109-11.728-67.283c-1.16-0.223-2.331-0.441-3.52-0.653c-28.926,12.593-109.951,24.232-136.1,27.714
		c-4.69,12.819-6.051,29.383-6.435,36.594c-4.421-6.846-10.231-11.177-10.231-11.177c-1.069-0.268-2.09-0.427-3.076-0.516
		c-8.105-0.732-13.251,4.444-13.251,13.677c0,12.582,11.173,41.899,23.791,30.424c5.389,13.641,12.854,26.353,22.413,36.759
		C154.263,247.065,157.316,249.975,160.557,252.641z"/>
	<path style="fill:#545465;" d="M121.521,163.604c0,0,5.81,4.331,10.231,11.177c0.384-7.212,1.745-23.776,6.435-36.594
		c26.148-3.482,107.173-15.121,136.1-27.714c-18.395-3.277-40.238-5.188-63.716-5.188c-32.137,0-61.239,3.569-82.579,9.34
		c-6.053,10.004-9.546,22.331-9.546,37.463c0,1.837,0.074,3.702,0.152,5.569c-0.051-0.017-0.102-0.034-0.152-0.052v5.482
		C119.431,163.177,120.452,163.336,121.521,163.604z"/>
	<path style="fill:#E3A274;" d="M331.521,289.731l-36.166-11.573l-47.354,65.112c-2.378,3.27-7.116,3.642-9.975,0.782
		l-14.296-14.296v6.58c0,2.689-1.636,5.013-3.962,6.031l3.962,78.773h28.662v-15.71c0-5.451,4.419-9.87,9.871-9.87h45.661
		c5.451,0,9.871,4.419,9.871,9.87v15.71h44.122c10.903,0,19.741-8.838,19.741-19.741v-42.981
		C381.658,329.464,359.096,298.554,331.521,289.731z M286.244,368.498c-9.085,0-16.451-8.838-16.451-19.741
		s7.365-19.741,16.451-19.741s16.451,8.838,16.451,19.741S295.329,368.498,286.244,368.498z"/>
	<path style="fill:#E3A274;" d="M201.371,342.368c-2.325-1.018-3.962-3.341-3.962-6.031v-6.58l-14.295,14.296
		c-2.859,2.859-7.597,2.488-9.975-0.782l-47.354-65.112L89.62,289.731c-27.576,8.823-50.138,39.732-50.138,68.687v42.981
		c0,10.903,8.838,19.741,19.741,19.741h43.942v-15.71c0-5.451,4.419-9.87,9.871-9.87h45.662c5.451,0,9.871,4.419,9.871,9.87v15.71
		h28.842L201.371,342.368z"/>
	<path style="fill:#D18F5D;" d="M183.114,344.053l14.295-14.296l13.161-13.161l-60.822-54.74l-0.341-0.306
		c-2.602-2.341-6.58-2.237-9.055,0.238l-15.326,15.327l0.759,1.044l47.354,65.112C175.517,346.54,180.255,346.912,183.114,344.053z"
		/>
	<path style="fill:#D18F5D;" d="M227.725,301.158l-17.155,15.439l13.161,13.161l14.296,14.296c2.859,2.859,7.596,2.488,9.975-0.782
		l47.354-65.112l0.759-1.044l-15.326-15.327c-2.475-2.475-6.454-2.579-9.055-0.238l-0.431,0.388L227.725,301.158z"/>
	<path style="fill:#914F38;" d="M219.769,342.368c2.325-1.018,3.962-3.341,3.962-6.031v-6.58l-13.161-13.161l-13.161,13.161v6.58
		c0,2.689,1.637,5.013,3.962,6.031l-3.962,78.773h13.161h13.161L219.769,342.368z"/>
	<path style="fill:#D18F5D;" d="M158.697,395.56h-45.662c-5.451,0-9.871,4.419-9.871,9.87v15.71l0,0h65.403l0,0v-15.71
		C168.568,399.979,164.148,395.56,158.697,395.56z"/>
	<path style="fill:#D18F5D;" d="M307.925,395.56h-45.661c-5.451,0-9.871,4.419-9.871,9.87v15.71l0,0h65.402l0,0v-15.71
		C317.795,399.979,313.376,395.56,307.925,395.56z"/>
	<path style="fill:#545465;" d="M302.542,157.657c0.079-1.867,0.152-3.732,0.152-5.569c0-15.132-3.492-27.459-9.545-37.463
		c-4.742-1.282-9.887-2.449-15.343-3.499c3.86,18.174,11.728,67.283,11.728,67.283l13.161-7.467v-7.917v-5.419
		C302.644,157.623,302.593,157.64,302.542,157.657z"/>
	<path style="fill:#914F38;" d="M210.494,78.964c22.727,0,45.576-6.531,66.026-12.573c-15.691-4.378-39.408-7.168-65.95-7.168
		c-26.566,0-50.303,2.795-65.993,7.179C164.98,72.441,187.782,78.964,210.494,78.964z"/>
	<path style="fill:#FFEFE4;" d="M118.598,157.657c-0.079-1.867-0.152-3.732-0.152-5.569c0-15.132,3.492-27.459,9.546-37.463
		c21.34-5.772,50.442-9.34,82.579-9.34c23.479,0,45.321,1.911,63.716,5.188c1.189,0.212,2.36,0.43,3.52,0.653
		c5.457,1.05,10.601,2.217,15.343,3.499c6.053,10.004,9.545,22.331,9.545,37.463c0,1.837-0.073,3.702-0.152,5.569
		c0.051-0.017,0.102-0.034,0.152-0.052c17.397-5.916,37.713-10.996,45.482-17.652c0.285-0.228,0.566-0.346,0.853-0.619
		c0.38-0.362,0.734-0.832,1.104-1.234c0.399-0.413,0.771-0.835,1.129-1.261c0.268-0.328,0.535-0.645,0.796-0.992
		c0.31-0.415,0.59-0.842,0.861-1.27c12.338-17.99,16.33-58.154-16.824-75.354c-11.144-5.782-28.1-1.961-48.109,3.801
		c-8.743-32.663-28.662-54.724-37.935-59.361c-22.208-11.104-29.611,6.58-39.482,6.58c-9.87,0-17.273-17.685-39.482-6.58
		c-9.274,4.637-29.198,26.706-37.939,59.377c-19.997-5.771-36.939-9.605-48.094-3.817c-32.169,16.689-29.382,55.04-17.918,73.739
		c1.12,2.252,2.771,4.305,4.858,6.232c0.043,0.042,0.083,0.1,0.126,0.141c0.023,0.022,0.045,0.028,0.068,0.049
		c7.658,6.938,28.368,12.139,46.256,18.222C118.496,157.623,118.547,157.64,118.598,157.657z M210.57,19.741
		c7.269,0,13.161,7.365,13.161,16.451s-5.892,16.451-13.161,16.451c-7.268,0-13.161-7.365-13.161-16.451
		S203.302,19.741,210.57,19.741z M210.57,59.223c26.542,0,50.26,2.79,65.95,7.168c-20.45,6.042-43.299,12.573-66.026,12.573
		c-22.713,0-45.514-6.522-65.917-12.561C160.267,62.018,184.004,59.223,210.57,59.223z"/>
	<ellipse style="fill:#FFD267;" cx="210.57" cy="36.192" rx="13.161" ry="16.451"/>
	<ellipse style="fill:#FFD267;" cx="286.244" cy="348.757" rx="16.451" ry="19.741"/>
</g>
<g>
</g>
<g>
</g>
<g>
</g>
<g>
</g>
<g>
</g>
<g>
</g>
<g>
</g>
<g>
</g>
<g>
</g>
<g>
</g>
<g>
</g>
<g>
</g>
<g>
</g>
<g>
</g>
<g>
</g>
</svg>
