<?xml version="1.0" encoding="iso-8859-1"?>
<!-- Generator: Adobe Illustrator 19.0.0, SVG Export Plug-In . SVG Version: 6.00 Build 0)  -->
<svg version="1.1" id="Layer_1" xmlns="http://www.w3.org/2000/svg" xmlns:xlink="http://www.w3.org/1999/xlink" x="0px" y="0px"
	 viewBox="0 0 504.938 504.938" style="enable-background:new 0 0 504.938 504.938;" xml:space="preserve">
<g transform="translate(1 1)">
	<polygon style="fill:#E4F4F9;" points="351.221,214.393 288.545,151.717 345.041,95.221 407.717,157.897 	"/>
	<g>
		<path style="fill:#BDC3C7;" d="M7.828,503.938c-2.648,0-4.414-0.883-6.179-2.648c-3.531-3.531-3.531-8.828,0-12.359l99.752-99.752
			c3.531-3.531,8.828-3.531,12.359,0s3.531,8.828,0,12.359L14.007,501.29C12.241,503.055,10.476,503.938,7.828,503.938z"/>
		<polygon style="fill:#BDC3C7;" points="413.897,114.641 388.297,89.041 457.152,21.069 481.869,45.786 		"/>
	</g>
	<polygon style="fill:#90BAE1;" points="332.683,195.855 307.083,170.255 363.579,114.641 388.297,139.359 	"/>
	<path style="fill:#ECF0F1;" d="M495.11,66.972c-2.648,0-4.414-0.883-6.179-2.648l-50.317-50.317c-3.531-3.531-3.531-8.828,0-12.359
		c3.531-3.531,8.828-3.531,12.359,0l50.317,50.317c3.531,3.531,3.531,8.828,0,12.359C499.524,66.09,496.876,66.972,495.11,66.972z"
		/>
	<path style="fill:#DEEDF1;" d="M410.366,161.428L341.51,92.572c-1.766-1.766-1.766-4.414,0-6.179l19.421-18.538
		c1.766-1.766,4.414-1.766,6.179,0l68.855,68.855c1.766,1.766,1.766,4.414,0,6.179l-18.538,18.538
		C414.779,163.193,412.131,163.193,410.366,161.428"/>
	<path style="fill:#F0C419;" d="M109.345,397.124l-3.531-3.531c-6.179-6.179-6.179-15.89,0-22.069l26.483-26.483l24.717,24.717
		l-26.483,26.483C125.234,402.421,115.524,402.421,109.345,397.124"/>
	<path style="fill:#E4F4F9;" d="M170.255,332.683L170.255,332.683c-17.655-17.655-17.655-45.021,0-62.676l118.29-118.29
		l62.676,62.676l-118.29,118.29C215.276,350.338,187.028,350.338,170.255,332.683"/>
	<path style="fill:#25C3AB;" d="M170.255,332.683c-4.414-4.414-7.945-9.71-9.71-15.007l-28.248,27.366l24.717,24.717l27.366-27.366
		C179.966,340.628,174.669,337.097,170.255,332.683"/>
	<polygon style="fill:#687492;" points="341.51,223.221 351.221,214.393 288.545,151.717 279.717,161.428 	"/>
	<g>
		<path style="fill:#90BAE1;" d="M251.469,189.676l30.897,30.897c1.766,1.766,4.414,2.648,6.179,2.648
			c2.648,0,4.414-0.883,6.179-2.648c3.531-3.531,3.531-8.828,0-12.359l-30.897-31.779L251.469,189.676z"/>
		<path style="fill:#90BAE1;" d="M219.69,220.572l30.897,30.897c1.766,1.766,4.414,2.648,6.179,2.648
			c1.766,0,4.414-0.883,6.179-2.648c3.531-3.531,3.531-8.828,0-12.359l-30.897-30.897l0,0L219.69,220.572L219.69,220.572z"/>
		<path style="fill:#90BAE1;" d="M232.931,270.007l-31.779-30.897l-12.359,12.359l30.897,31.779
			c1.766,1.766,4.414,2.648,6.179,2.648s4.414-0.883,6.179-2.648C235.579,279.717,235.579,273.538,232.931,270.007"/>
	</g>
</g>
<g>
</g>
<g>
</g>
<g>
</g>
<g>
</g>
<g>
</g>
<g>
</g>
<g>
</g>
<g>
</g>
<g>
</g>
<g>
</g>
<g>
</g>
<g>
</g>
<g>
</g>
<g>
</g>
<g>
</g>
</svg>
